UbuntuSansMono-Italic.ufo
<glyph name="boxHeavyTripleDashHorizontal" format="2">
  <advance width="560"/>
  <unicode hex="2505"/>
  <outline>
    <contour>
      <point x="404" y="277" type="line"/>
      <point x="529" y="277" type="line"/>
      <point x="529" y="343" type="line"/>
      <point x="404" y="343" type="line"/>
    </contour>
    <contour>
      <point x="31" y="277" type="line"/>
      <point x="156" y="277" type="line"/>
      <point x="156" y="343" type="line"/>
      <point x="31" y="343" type="line"/>
    </contour>
    <contour>
      <point x="218" y="277" type="line"/>
      <point x="342" y="277" type="line"/>
      <point x="342" y="343" type="line"/>
      <point x="218" y="343" type="line"/>
    </contour>
  </outline>
</glyph>
<glyph name="boxHeavyTripleDashVertical" format="2">
  <advance width="560"/>
  <unicode hex="2507"/>
  <outline>
    <contour>
      <point x="247" y="532" type="line"/>
      <point x="313" y="532" type="line"/>
      <point x="313" y="754" type="line"/>
      <point x="247" y="754" type="line"/>
    </contour>
    <contour>
      <point x="247" y="-134" type="line"/>
      <point x="313" y="-134" type="line"/>
      <point x="313" y="88" type="line"/>
      <point x="247" y="88" type="line"/>
    </contour>
    <contour>
      <point x="247" y="199" type="line"/>
      <point x="313" y="199" type="line"/>
      <point x="313" y="421" type="line"/>
      <point x="247" y="421" type="line"/>
    </contour>
  </outline>
</glyph>
<glyph name="boxLightQuadrupleDashHorizontal" format="2">
  <advance width="560"/>
  <unicode hex="2508"/>
  <outline>
    <contour>
      <point x="438" y="294" type="line"/>
      <point x="543" y="294" type="line"/>
      <point x="543" y="327" type="line"/>
      <point x="438" y="327" type="line"/>
    </contour>
    <contour>
      <point x="18" y="294" type="line"/>
      <point x="123" y="294" type="line"/>
      <point x="123" y="327" type="line"/>
      <point x="18" y="327" type="line"/>
    </contour>
    <contour>
      <point x="158" y="294" type="line"/>
      <point x="263" y="294" type="line"/>
      <point x="263" y="327" type="line"/>
      <point x="158" y="327" type="line"/>
    </contour>
    <contour>
      <point x="298" y="294" type="line"/>
      <point x="403" y="294" type="line"/>
      <point x="403" y="327" type="line"/>
      <point x="298" y="327" type="line"/>
    </contour>
  </outline>
</glyph>
<glyph name="boxHeavyQuadrupleDashHorizontal" format="2">
  <advance width="560"/>
  <unicode hex="2509"/>
  <outline>
    <contour>
      <point x="438" y="277" type="line"/>
      <point x="543" y="277" type="line"/>
      <point x="543" y="343" type="line"/>
      <point x="438" y="343" type="line"/>
    </contour>
    <contour>
      <point x="18" y="277" type="line"/>
      <point x="123" y="277" type="line"/>
      <point x="123" y="343" type="line"/>
      <point x="18" y="343" type="line"/>
    </contour>
    <contour>
      <point x="158" y="277" type="line"/>
      <point x="263" y="277" type="line"/>
      <point x="263" y="343" type="line"/>
      <point x="158" y="343" type="line"/>
    </contour>
    <contour>
      <point x="298" y="277" type="line"/>
      <point x="403" y="277" type="line"/>
      <point x="403" y="343" type="line"/>
      <point x="298" y="343" type="line"/>
    </contour>
  </outline>
</glyph>
<glyph name="boxLightQuadrupleDashVertical" format="2">
  <advance width="560"/>
  <unicode hex="250A"/>
  <outline>
    <contour>
      <point x="264" y="591" type="line"/>
      <point x="297" y="591" type="line"/>
      <point x="297" y="779" type="line"/>
      <point x="264" y="779" type="line"/>
    </contour>
    <contour>
      <point x="264" y="-159" type="line"/>
      <point x="297" y="-159" type="line"/>
      <point x="297" y="29" type="line"/>
      <point x="264" y="29" type="line"/>
    </contour>
    <contour>
      <point x="264" y="91" type="line"/>
      <point x="297" y="91" type="line"/>
      <point x="297" y="279" type="line"/>
      <point x="264" y="279" type="line"/>
    </contour>
    <contour>
      <point x="264" y="341" type="line"/>
      <point x="297" y="341" type="line"/>
      <point x="297" y="529" type="line"/>
      <point x="264" y="529" type="line"/>
    </contour>
  </outline>
</glyph>
<glyph name="boxHeavyQuadrupleDashVertical" format="2">
  <advance width="560"/>
  <unicode hex="250B"/>
  <outline>
    <contour>
      <point x="247" y="591" type="line"/>
      <point x="313" y="591" type="line"/>
      <point x="313" y="779" type="line"/>
      <point x="247" y="779" type="line"/>
    </contour>
    <contour>
      <point x="247" y="-159" type="line"/>
      <point x="313" y="-159" type="line"/>
      <point x="313" y="29" type="line"/>
      <point x="247" y="29" type="line"/>
    </contour>
    <contour>
      <point x="247" y="91" type="line"/>
      <point x="313" y="91" type="line"/>
      <point x="313" y="279" type="line"/>
      <point x="247" y="279" type="line"/>
    </contour>
    <contour>
      <point x="247" y="341" type="line"/>
      <point x="313" y="341" type="line"/>
      <point x="313" y="529" type="line"/>
      <point x="247" y="529" type="line"/>
    </contour>
  </outline>
</glyph>
<glyph name="boxLightDownAndRight" format="2">
  <advance width="560"/>
  <unicode hex="250C"/>
  <outline>
    <contour>
      <point x="264" y="-300" type="line"/>
      <point x="297" y="-300" type="line"/>
      <point x="297" y="294" type="line"/>
      <point x="565" y="294" type="line"/>
      <point x="565" y="327" type="line"/>
      <point x="264" y="327" type="line"/>
    </contour>
  </outline>
</glyph>
<glyph name="boxUpHeavyAndRightLight" format="2">
  <advance width="560"/>
  <unicode hex="2516"/>
  <outline>
    <contour>
      <point x="247" y="294" type="line"/>
      <point x="565" y="294" type="line"/>
      <point x="565" y="327" type="line"/>
      <point x="313" y="327" type="line"/>
      <point x="313" y="920" type="line"/>
      <point x="247" y="920" type="line"/>
    </contour>
  </outline>
</glyph>
<glyph name="boxUpHeavyAndLeftLight" format="2">
  <advance width="560"/>
  <unicode hex="251A"/>
  <outline>
    <contour>
      <point x="-5" y="294" type="line"/>
      <point x="313" y="294" type="line"/>
      <point x="313" y="920" type="line"/>
      <point x="247" y="920" type="line"/>
      <point x="247" y="327" type="line"/>
      <point x="-5" y="327" type="line"/>
    </contour>
  </outline>
</glyph>
<glyph name="boxDownHeavyAndRightUpLight" format="2">
  <advance width="560"/>
  <unicode hex="251F"/>
  <outline>
    <contour>
      <point x="247" y="-300" type="line"/>
      <point x="313" y="-300" type="line"/>
      <point x="313" y="294" type="line"/>
      <point x="565" y="294" type="line"/>
      <point x="565" y="327" type="line"/>
      <point x="297" y="327" type="line"/>
      <point x="297" y="920" type="line"/>
      <point x="264" y="920" type="line"/>
      <point x="264" y="327" type="line"/>
      <point x="247" y="327" type="line"/>
    </contour>
  </outline>
</glyph>
<glyph name="boxVerticalHeavyAndRightLight" format="2">
  <advance width="560"/>
  <unicode hex="2520"/>
  <outline>
    <contour>
      <point x="247" y="-300" type="line"/>
      <point x="313" y="-300" type="line"/>
      <point x="313" y="294" type="line"/>
      <point x="565" y="294" type="line"/>
      <point x="565" y="327" type="line"/>
      <point x="313" y="327" type="line"/>
      <point x="313" y="920" type="line"/>
      <point x="247" y="920" type="line"/>
    </contour>
  </outline>
</glyph>
<glyph name="boxHeavyVerticalAndRight" format="2">
  <advance width="560"/>
  <unicode hex="2523"/>
  <outline>
    <contour>
      <point x="247" y="-300" type="line"/>
      <point x="313" y="-300" type="line"/>
      <point x="313" y="277" type="line"/>
      <point x="565" y="277" type="line"/>
      <point x="565" y="343" type="line"/>
      <point x="313" y="343" type="line"/>
      <point x="313" y="920" type="line"/>
      <point x="247" y="920" type="line"/>
    </contour>
  </outline>
</glyph>
<glyph name="boxVerticalLightAndLeftHeavy" format="2">
  <advance width="560"/>
  <unicode hex="2525"/>
  <outline>
    <contour>
      <point x="264" y="-300" type="line"/>
      <point x="297" y="-300" type="line"/>
      <point x="297" y="920" type="line"/>
      <point x="264" y="920" type="line"/>
      <point x="264" y="343" type="line"/>
      <point x="-5" y="343" type="line"/>
      <point x="-5" y="277" type="line"/>
      <point x="264" y="277" type="line"/>
    </contour>
  </outline>
</glyph>
<glyph name="boxHeavyVerticalAndLeft" format="2">
  <advance width="560"/>
  <unicode hex="252B"/>
  <outline>
    <contour>
      <point x="247" y="-300" type="line"/>
      <point x="313" y="-300" type="line"/>
      <point x="313" y="920" type="line"/>
      <point x="247" y="920" type="line"/>
      <point x="247" y="343" type="line"/>
      <point x="-5" y="343" type="line"/>
      <point x="-5" y="277" type="line"/>
      <point x="247" y="277" type="line"/>
    </contour>
  </outline>
</glyph>
<glyph name="boxLightDownAndHorizontal" format="2">
  <advance width="560"/>
  <unicode hex="252C"/>
  <outline>
    <contour>
      <point x="264" y="-300" type="line"/>
      <point x="297" y="-300" type="line"/>
      <point x="297" y="294" type="line"/>
      <point x="565" y="294" type="line"/>
      <point x="565" y="327" type="line"/>
      <point x="-5" y="327" type="line"/>
      <point x="-5" y="294" type="line"/>
      <point x="264" y="294" type="line"/>
    </contour>
  </outline>
</glyph>
<glyph name="boxDownLightAndHorizontalHeavy" format="2">
  <advance width="560"/>
  <unicode hex="252F"/>
  <outline>
    <contour>
      <point x="264" y="-300" type="line"/>
      <point x="297" y="-300" type="line"/>
      <point x="297" y="277" type="line"/>
      <point x="565" y="277" type="line"/>
      <point x="565" y="343" type="line"/>
      <point x="-5" y="343" type="line"/>
      <point x="-5" y="277" type="line"/>
      <point x="264" y="277" type="line"/>
    </contour>
  </outline>
</glyph>
<glyph name="boxLeftHeavyAndRightUpLight" format="2">
  <advance width="560"/>
  <unicode hex="2535"/>
  <outline>
    <contour>
      <point x="-5" y="277" type="line"/>
      <point x="297" y="277" type="line"/>
      <point x="297" y="294" type="line"/>
      <point x="565" y="294" type="line"/>
      <point x="565" y="327" type="line"/>
      <point x="297" y="327" type="line"/>
      <point x="297" y="920" type="line"/>
      <point x="264" y="920" type="line"/>
      <point x="264" y="343" type="line"/>
      <point x="-5" y="343" type="line"/>
    </contour>
  </outline>
</glyph>
<glyph name="boxHeavyUpAndHorizontal" format="2">
  <advance width="560"/>
  <unicode hex="253B"/>
  <outline>
    <contour>
      <point x="-5" y="277" type="line"/>
      <point x="565" y="277" type="line"/>
      <point x="565" y="343" type="line"/>
      <point x="313" y="343" type="line"/>
      <point x="313" y="920" type="line"/>
      <point x="247" y="920" type="line"/>
      <point x="247" y="343" type="line"/>
      <point x="-5" y="343" type="line"/>
    </contour>
  </outline>
</glyph>
<glyph name="boxHeavyDoubleDashVertical" format="2">
  <advance width="560"/>
  <unicode hex="254F"/>
  <outline>
    <contour>
      <point x="247" y="435" type="line"/>
      <point x="313" y="435" type="line"/>
      <point x="313" y="685" type="line"/>
      <point x="247" y="685" type="line"/>
    </contour>
    <contour>
      <point x="247" y="-65" type="line"/>
      <point x="313" y="-65" type="line"/>
      <point x="313" y="185" type="line"/>
      <point x="247" y="185" type="line"/>
    </contour>
  </outline>
</glyph>
<glyph name="boxDoubleHorizontal" format="2">
  <advance width="560"/>
  <unicode hex="2550"/>
  <outline>
    <contour>
      <point x="-5" y="327" type="line"/>
      <point x="565" y="327" type="line"/>
      <point x="565" y="360" type="line"/>
      <point x="-5" y="360" type="line"/>
    </contour>
    <contour>
      <point x="-5" y="261" type="line"/>
      <point x="565" y="261" type="line"/>
      <point x="565" y="294" type="line"/>
      <point x="-5" y="294" type="line"/>
    </contour>
  </outline>
</glyph>
<glyph name="boxUpSingleAndRightDouble" format="2">
  <advance width="560"/>
  <unicode hex="2558"/>
  <outline>
    <contour>
      <point x="264" y="261" type="line"/>
      <point x="565" y="261" type="line"/>
      <point x="565" y="294" type="line"/>
      <point x="297" y="294" type="line"/>
      <point x="297" y="327" type="line"/>
      <point x="565" y="327" type="line"/>
      <point x="565" y="360" type="line"/>
      <point x="297" y="360" type="line"/>
      <point x="297" y="920" type="line"/>
      <point x="264" y="920" type="line"/>
    </contour>
  </outline>
</glyph>
<glyph name="boxDoubleUpAndRight" format="2">
  <advance width="560"/>
  <unicode hex="255A"/>
  <outline>
    <contour>
      <point x="231" y="261" type="line"/>
      <point x="565" y="261" type="line"/>
      <point x="565" y="294" type="line"/>
      <point x="264" y="294" type="line"/>
      <point x="264" y="920" type="line"/>
      <point x="231" y="920" type="line"/>
    </contour>
    <contour>
      <point x="297" y="327" type="line"/>
      <point x="565" y="327" type="line"/>
      <point x="565" y="360" type="line"/>
      <point x="330" y="360" type="line"/>
      <point x="330" y="920" type="line"/>
      <point x="297" y="920" type="line"/>
    </contour>
  </outline>
</glyph>
<glyph name="boxVerticalSingleAndLeftDouble" format="2">
  <advance width="560"/>
  <unicode hex="2561"/>
  <outline>
    <contour>
      <point x="264" y="-300" type="line"/>
      <point x="297" y="-300" type="line"/>
      <point x="297" y="920" type="line"/>
      <point x="264" y="920" type="line"/>
      <point x="264" y="360" type="line"/>
      <point x="-5" y="360" type="line"/>
      <point x="-5" y="327" type="line"/>
      <point x="264" y="327" type="line"/>
      <point x="264" y="294" type="line"/>
      <point x="-5" y="294" type="line"/>
      <point x="-5" y="261" type="line"/>
      <point x="264" y="261" type="line"/>
    </contour>
  </outline>
</glyph>
<glyph name="boxLightArcDownAndRight" format="2">
  <advance width="560"/>
  <unicode hex="256D"/>
  <outline>
    <contour>
      <point x="264" y="-300" type="line"/>
      <point x="297" y="-300" type="line"/>
      <point x="297" y="77" type="line" smooth="yes"/>
      <point x="297" y="196"/>
      <point x="394" y="294"/>
      <point x="513" y="294" type="curve" smooth="yes"/>
      <point x="565" y="294" type="line"/>
      <point x="565" y="327" type="line"/>
      <point x="513" y="327" type="line" smooth="yes"/>
      <point x="375" y="327"/>
      <point x="264" y="215"/>
      <point x="264" y="77" type="curve" smooth="yes"/>
    </contour>
  </outline>
</glyph>
<glyph name="boxLightArcDownAndLeft" format="2">
  <advance width="560"/>
  <unicode hex="256E"/>
  <outline>
    <contour>
      <point x="264" y="-300" type="line"/>
      <point x="297" y="-300" type="line"/>
      <point x="297" y="77" type="line" smooth="yes"/>
      <point x="297" y="215"/>
      <point x="185" y="327"/>
      <point x="47" y="327" type="curve" smooth="yes"/>
      <point x="-5" y="327" type="line"/>
      <point x="-5" y="294" type="line"/>
      <point x="47" y="294" type="line" smooth="yes"/>
      <point x="166" y="294"/>
      <point x="264" y="196"/>
      <point x="264" y="77" type="curve" smooth="yes"/>
    </contour>
  </outline>
</glyph>
<glyph name="boxLightDiagonalUpperRightToLowerLeft" format="2">
  <advance width="560"/>
  <unicode hex="2571"/>
  <outline>
    <contour>
      <point x="0" y="-190" type="line"/>
      <point x="19" y="-190" type="line"/>
      <point x="560" y="776" type="line"/>
      <point x="560" y="810" type="line"/>
      <point x="541" y="810" type="line"/>
      <point x="0" y="-156" type="line"/>
    </contour>
  </outline>
</glyph>
<glyph name="boxLightLeft" format="2">
  <advance width="560"/>
  <unicode hex="2574"/>
  <outline>
    <contour>
      <point x="-5" y="294" type="line"/>
      <point x="297" y="294" type="line"/>
      <point x="297" y="327" type="line"/>
      <point x="-5" y="327" type="line"/>
    </contour>
  </outline>
</glyph>
<glyph name="boxLightDown" format="2">
  <advance width="560"/>
  <unicode hex="2577"/>
  <outline>
    <contour>
      <point x="264" y="-300" type="line"/>
      <point x="297" y="-300" type="line"/>
      <point x="297" y="327" type="line"/>
      <point x="264" y="327" type="line"/>
    </contour>
  </outline>
</glyph>
<glyph name="boxHeavyRight" format="2">
  <advance width="560"/>
  <unicode hex="257A"/>
  <outline>
    <contour>
      <point x="264" y="277" type="line"/>
      <point x="565" y="277" type="line"/>
      <point x="565" y="343" type="line"/>
      <point x="264" y="343" type="line"/>
    </contour>
  </outline>
</glyph>
<glyph name="boxHeavyUpAndLightDown" format="2">
  <advance width="560"/>
  <unicode hex="257F"/>
  <outline>
    <contour>
      <point x="264" y="-300" type="line"/>
      <point x="297" y="-300" type="line"/>
      <point x="297" y="294" type="line"/>
      <point x="313" y="294" type="line"/>
      <point x="313" y="920" type="line"/>
      <point x="247" y="920" type="line"/>
      <point x="247" y="294" type="line"/>
      <point x="264" y="294" type="line"/>
    </contour>
  </outline>
</glyph>
<glyph name="lowerThreeEighthsBlock" format="2">
  <advance width="560"/>
  <unicode hex="2583"/>
  <outline>
    <contour>
      <point x="0" y="-290" type="line"/>
      <point x="560" y="-290" type="line"/>
      <point x="560" y="160" type="line"/>
      <point x="0" y="160" type="line"/>
    </contour>
  </outline>
</glyph>
<glyph name="ballotBox" format="2">
  <advance width="560"/>
  <unicode hex="2610"/>
  <outline>
    <contour>
      <point x="30" y="0" type="line"/>
      <point x="530" y="0" type="line"/>
      <point x="530" y="500" type="line"/>
      <point x="30" y="500" type="line"/>
    </contour>
    <contour>
      <point x="81" y="51" type="line"/>
      <point x="81" y="449" type="line"/>
      <point x="479" y="449" type="line"/>
      <point x="479" y="51" type="line"/>
    </contour>
  </outline>
</glyph>
<glyph name="ballotBoxWithCheck" format="2">
  <advance width="560"/>
  <unicode hex="2611"/>
  <outline>
    <contour>
      <point x="242" y="92" type="line"/>
      <point x="449" y="374" type="line"/>
      <point x="411" y="404" type="line"/>
      <point x="237" y="165" type="line"/>
      <point x="144" y="260" type="line"/>
      <point x="110" y="225" type="line"/>
    </contour>
    <contour>
      <point x="30" y="0" type="line"/>
      <point x="530" y="0" type="line"/>
      <point x="530" y="500" type="line"/>
      <point x="30" y="500" type="line"/>
    </contour>
    <contour>
      <point x="81" y="51" type="line"/>
      <point x="81" y="449" type="line"/>
      <point x="479" y="449" type="line"/>
      <point x="479" y="51" type="line"/>
    </contour>
  </outline>
</glyph>
<glyph name="ballotBoxWithX" format="2">
  <advance width="560"/>
  <unicode hex="2612"/>
  <outline>
    <contour>
      <point x="399" y="96" type="line"/>
      <point x="435" y="132" type="line"/>
      <point x="161" y="404" type="line"/>
      <point x="125" y="368" type="line"/>
    </contour>
    <contour>
      <point x="161" y="96" type="line"/>
      <point x="435" y="368" type="line"/>
      <point x="399" y="404" type="line"/>
      <point x="125" y="132" type="line"/>
    </contour>
    <contour>
      <point x="30" y="0" type="line"/>
      <point x="530" y="0" type="line"/>
      <point x="530" y="500" type="line"/>
      <point x="30" y="500" type="line"/>
    </contour>
    <contour>
      <point x="81" y="51" type="line"/>
      <point x="81" y="449" type="line"/>
      <point x="479" y="449" type="line"/>
      <point x="479" y="51" type="line"/>
    </contour>
  </outline>
</glyph>
